<svg id="レイヤー_1" data-name="レイヤー 1" xmlns="http://www.w3.org/2000/svg" xmlns:xlink="http://www.w3.org/1999/xlink" viewBox="0 0 180 730"><defs><linearGradient id="名称未設定グラデーション_3" x1="3" y1="659.08" x2="152.51" y2="659.08" gradientUnits="userSpaceOnUse"><stop offset="0" stop-color="#865292"/><stop offset="0.22" stop-color="#804c8e"/><stop offset="0.52" stop-color="#6f3c82"/><stop offset="0.86" stop-color="#53216e"/><stop offset="1" stop-color="#451464"/></linearGradient><linearGradient id="名称未設定グラデーション_3-2" x1="4" y1="433.5" x2="166" y2="433.5" xlink:href="#名称未設定グラデーション_3"/><linearGradient id="サマーホットピンク" x1="-413.76" y1="565" x2="-413.76" y2="573" gradientTransform="translate(490)" gradientUnits="userSpaceOnUse"><stop offset="0" stop-color="#d37baf"/><stop offset="0.03" stop-color="#d277ad"/><stop offset="0.5" stop-color="#c54091"/><stop offset="0.79" stop-color="#c01887"/><stop offset="1" stop-color="#bd0081"/></linearGradient><linearGradient id="サマーグリーン" x1="-355.77" y1="565" x2="-355.77" y2="573" gradientTransform="translate(490)" gradientUnits="userSpaceOnUse"><stop offset="0" stop-color="#7cc490"/><stop offset="0.27" stop-color="#38b676"/><stop offset="0.5" stop-color="#00aa61"/><stop offset="0.57" stop-color="#00a75c"/><stop offset="1" stop-color="#009945"/></linearGradient><linearGradient id="オータムイエロー" x1="-334.41" y1="307.01" x2="-334.41" y2="299.24" gradientTransform="matrix(-1, 0, 0, 1, -211, 0)" gradientUnits="userSpaceOnUse"><stop offset="0" stop-color="#fef9e5"/><stop offset="0" stop-color="#fef1bf"/><stop offset="0" stop-color="#ffe688"/><stop offset="0.55" stop-color="#fed200"/><stop offset="0.6" stop-color="#fbce00"/><stop offset="1" stop-color="#e5b700"/></linearGradient><linearGradient id="サマーターコイズ" x1="-349.88" y1="299.24" x2="-349.88" y2="307.01" gradientTransform="matrix(-1, 0, 0, 1, -211, 0)" gradientUnits="userSpaceOnUse"><stop offset="0" stop-color="#6dc6d3"/><stop offset="0.24" stop-color="#37b8c9"/><stop offset="0.5" stop-color="#00aabe"/><stop offset="0.71" stop-color="#00a5aa"/><stop offset="1" stop-color="#009e93"/></linearGradient><linearGradient id="サマーホットピンク-2" x1="-353.36" y1="323" x2="-353.36" y2="331" gradientTransform="matrix(-1, 0, 0, 1, -211, 0)" xlink:href="#サマーホットピンク"/><linearGradient id="サマーグリーン-2" x1="-306.49" y1="323" x2="-306.49" y2="331" gradientTransform="matrix(-1, 0, 0, 1, -211, 0)" xlink:href="#サマーグリーン"/><linearGradient id="サマーホットピンク-3" x1="-342.88" y1="346" x2="-342.88" y2="354" gradientTransform="matrix(-1, 0, 0, 1, -211, 0)" xlink:href="#サマーホットピンク"/><linearGradient id="サマーグリーン-3" x1="-275.24" y1="346" x2="-275.24" y2="354" gradientTransform="matrix(-1, 0, 0, 1, -211, 0)" xlink:href="#サマーグリーン"/><linearGradient id="サマーホットピンク-4" x1="-350.03" y1="540" x2="-350.03" y2="548" gradientTransform="matrix(-1, 0, 0, 1, -211, 0)" xlink:href="#サマーホットピンク"/><linearGradient id="サマーグリーン-4" x1="-328.29" y1="540" x2="-328.29" y2="548" gradientTransform="matrix(-1, 0, 0, 1, -211, 0)" xlink:href="#サマーグリーン"/><linearGradient id="サマーホットピンク-5" x1="-346" y1="110" x2="-346" y2="118" gradientTransform="matrix(-1, 0, 0, 1, -211, 0)" xlink:href="#サマーホットピンク"/><linearGradient id="サマーグリーン-5" x1="-288.5" y1="110" x2="-288.5" y2="118" gradientTransform="matrix(-1, 0, 0, 1, -211, 0)" xlink:href="#サマーグリーン"/><linearGradient id="オータムイエロー-2" x1="-258.38" y1="140" x2="-258.38" y2="132" xlink:href="#オータムイエロー"/><linearGradient id="サマーターコイズ-2" x1="-313.85" y1="132" x2="-313.85" y2="140" xlink:href="#サマーターコイズ"/><linearGradient id="オータムイエロー-3" x1="-254.68" y1="426" x2="-254.68" y2="418" xlink:href="#オータムイエロー"/><linearGradient id="サマーターコイズ-3" x1="-261.45" y1="418" x2="-261.45" y2="426" xlink:href="#サマーターコイズ"/><linearGradient id="オータムイエロー-4" x1="-268.64" y1="596" x2="-268.64" y2="588" xlink:href="#オータムイエロー"/><linearGradient id="サマーターコイズ-4" x1="-339.68" y1="588" x2="-339.68" y2="596" xlink:href="#サマーターコイズ"/><linearGradient id="オータムイエロー-5" x1="-264.08" y1="378" x2="-264.08" y2="370" gradientTransform="translate(374.85)" xlink:href="#オータムイエロー"/><linearGradient id="サマーターコイズ-5" x1="-330.67" y1="370" x2="-330.67" y2="378" gradientTransform="translate(374.85)" xlink:href="#サマーターコイズ"/><linearGradient id="オータムイエロー-6" x1="-311.05" y1="670" x2="-311.05" y2="662" gradientTransform="translate(374.85)" xlink:href="#オータムイエロー"/><linearGradient id="サマーターコイズ-6" x1="-327.97" y1="662" x2="-327.97" y2="670" gradientTransform="translate(374.85)" xlink:href="#サマーターコイズ"/><linearGradient id="サマーホットピンク-6" x1="-169.34" y1="72" x2="-169.34" y2="64" gradientTransform="translate(316)" xlink:href="#サマーホットピンク"/><linearGradient id="サマーグリーン-6" x1="-162.1" y1="72" x2="-162.1" y2="64" gradientTransform="translate(316)" xlink:href="#サマーグリーン"/><linearGradient id="サマーホットピンク-7" x1="-280.02" y1="393" x2="-280.02" y2="401" gradientTransform="translate(316)" xlink:href="#サマーホットピンク"/><linearGradient id="サマーグリーン-7" x1="-240.39" y1="393" x2="-240.39" y2="401" gradientTransform="translate(316)" xlink:href="#サマーグリーン"/><linearGradient id="サマーホットピンク-8" x1="-275.34" y1="611.24" x2="-275.34" y2="619.01" gradientTransform="translate(316)" xlink:href="#サマーホットピンク"/><linearGradient id="サマーグリーン-8" x1="-210.6" y1="611.24" x2="-210.6" y2="619.01" gradientTransform="translate(316)" xlink:href="#サマーグリーン"/><linearGradient id="サマーホットピンク-9" x1="-277.7" y1="635" x2="-277.7" y2="643" gradientTransform="translate(316)" xlink:href="#サマーホットピンク"/><linearGradient id="サマーグリーン-9" x1="-243.39" y1="635" x2="-243.39" y2="643" gradientTransform="translate(316)" xlink:href="#サマーグリーン"/><linearGradient id="サマーホットピンク-10" x1="-286.08" y1="181" x2="-286.08" y2="189" gradientTransform="translate(316)" xlink:href="#サマーホットピンク"/><linearGradient id="サマーグリーン-10" x1="-280.28" y1="181" x2="-280.28" y2="189" gradientTransform="translate(316)" xlink:href="#サマーグリーン"/><linearGradient id="オータムイエロー-7" x1="-450.62" y1="165.17" x2="-450.62" y2="158.17" gradientTransform="translate(510.85)" xlink:href="#オータムイエロー"/><linearGradient id="サマーターコイズ-7" x1="-481.46" y1="158.17" x2="-481.46" y2="165.17" gradientTransform="translate(510.85)" xlink:href="#サマーターコイズ"/><linearGradient id="オータムイエロー-8" x1="-362.25" y1="95" x2="-362.25" y2="87" gradientTransform="translate(510.85)" xlink:href="#オータムイエロー"/><linearGradient id="サマーターコイズ-8" x1="-397.92" y1="87" x2="-397.92" y2="95" gradientTransform="translate(510.85)" xlink:href="#サマーターコイズ"/><linearGradient id="名称未設定グラデーション_3-3" x1="4.89" y1="204.07" x2="167" y2="204.07" xlink:href="#名称未設定グラデーション_3"/><linearGradient id="ターコイズ" x1="12.89" y1="363.65" x2="176.15" y2="363.65" gradientUnits="userSpaceOnUse"><stop offset="0.01" stop-color="#3eafcd"/><stop offset="0.5" stop-color="#0091b8"/><stop offset="0.99" stop-color="#00767f"/></linearGradient><linearGradient id="名称未設定グラデーション_3-4" x1="4.89" y1="95.35" x2="167.15" y2="95.35" xlink:href="#名称未設定グラデーション_3"/><linearGradient id="名称未設定グラデーション_3-5" x1="4" y1="317.5" x2="167" y2="317.5" xlink:href="#名称未設定グラデーション_3"/><linearGradient id="名称未設定グラデーション_3-6" x1="3" y1="553" x2="166" y2="553" xlink:href="#名称未設定グラデーション_3"/><linearGradient id="オータムイエロー-9" x1="-266" y1="236" x2="-266" y2="228" xlink:href="#オータムイエロー"/><linearGradient id="サマーターコイズ-9" x1="-326.32" y1="228" x2="-326.32" y2="236" xlink:href="#サマーターコイズ"/><linearGradient id="サマーホットピンク-11" x1="-345.46" y1="251" x2="-345.46" y2="259" gradientTransform="matrix(-1, 0, 0, 1, -211, 0)" xlink:href="#サマーホットピンク"/><linearGradient id="サマーグリーン-11" x1="-290.86" y1="251" x2="-290.86" y2="259" gradientTransform="matrix(-1, 0, 0, 1, -211, 0)" xlink:href="#サマーグリーン"/><linearGradient id="サマーホットピンク-12" x1="-278.72" y1="204" x2="-278.72" y2="212" gradientTransform="translate(316)" xlink:href="#サマーホットピンク"/><linearGradient id="サマーグリーン-12" x1="-242.48" y1="204" x2="-242.48" y2="212" gradientTransform="translate(316)" xlink:href="#サマーグリーン"/><linearGradient id="オータムイエロー-10" x1="-373.73" y1="284" x2="-373.73" y2="276" gradientTransform="translate(510.85)" xlink:href="#オータムイエロー"/><linearGradient id="サマーターコイズ-10" x1="-397.41" y1="276" x2="-397.41" y2="284" gradientTransform="translate(510.85)" xlink:href="#サマーターコイズ"/><linearGradient id="オータムイエロー-11" x1="-417.61" y1="452" x2="-417.61" y2="444" gradientTransform="translate(510.85)" xlink:href="#オータムイエロー"/><linearGradient id="サマーターコイズ-11" x1="-464.97" y1="444" x2="-464.97" y2="452" gradientTransform="translate(510.85)" xlink:href="#サマーターコイズ"/><linearGradient id="オータムイエロー-12" x1="-265.37" y1="475" x2="-265.37" y2="467" xlink:href="#オータムイエロー"/><linearGradient id="サマーターコイズ-12" x1="-330.03" y1="467" x2="-330.03" y2="475" xlink:href="#サマーターコイズ"/><linearGradient id="サマーホットピンク-13" x1="-342.49" y1="490" x2="-342.49" y2="498" gradientTransform="matrix(-1, 0, 0, 1, -211, 0)" xlink:href="#サマーホットピンク"/><linearGradient id="サマーグリーン-13" x1="-285.95" y1="490" x2="-285.95" y2="498" gradientTransform="matrix(-1, 0, 0, 1, -211, 0)" xlink:href="#サマーグリーン"/><linearGradient id="オータムイエロー-13" x1="-241.73" y1="523" x2="-241.73" y2="515" gradientTransform="translate(374.85)" xlink:href="#オータムイエロー"/><linearGradient id="サマーターコイズ-13" x1="-265.41" y1="515" x2="-265.41" y2="523" gradientTransform="translate(374.85)" xlink:href="#サマーターコイズ"/><linearGradient id="オータムイエロー-14" x1="-261.7" y1="694.01" x2="-261.7" y2="686.24" xlink:href="#オータムイエロー"/><linearGradient id="サマーターコイズ-14" x1="-316.31" y1="686.24" x2="-316.31" y2="694.01" xlink:href="#サマーターコイズ"/><linearGradient id="オータムイエロー-15" x1="-340.04" y1="48" x2="-340.04" y2="40" xlink:href="#オータムイエロー"/><linearGradient id="サマーターコイズ-15" x1="-360.34" y1="48" x2="-360.34" y2="40" xlink:href="#サマーターコイズ"/></defs><title>二重らせんc</title><path d="M149.16,698.49C114.33,667.2,7.53,658.25,8,616v2" style="fill:none;stroke-miterlimit:10;stroke-width:10px;stroke:url(#名称未設定グラデーション_3)"/><path d="M161,488C161.56,435,8.44,432.05,9,379" style="fill:none;stroke-miterlimit:10;stroke-width:10px;stroke:url(#名称未設定グラデーション_3-2)"/><path d="M105.49,573H47v-8h58.49s-4,0-4,4S105.49,573,105.49,573Z" style="fill:url(#サマーホットピンク)"/><path d="M167,573H105.49s-4,0-4-4,4-4,4-4H167Z" style="fill:url(#サマーグリーン)"/><polygon points="115 307.01 130.75 307.01 131.82 303.12 130.75 299.24 115 299.24 115 307.01" style="fill:url(#オータムイエロー)"/><polygon points="130.75 307.01 147 307.01 147 299.24 130.75 299.24 131.82 303.12 130.75 307.01" style="fill:url(#サマーターコイズ)"/><path d="M118.72,331H166v-8H118.72s3.26,0,3.26,4S118.72,331,118.72,331Z" style="fill:url(#サマーホットピンク-2)"/><path d="M69,331h49.72s3.26,0,3.26-4-3.26-4-3.26-4H69Z" style="fill:url(#サマーグリーン-2)"/><path d="M97.76,354H166v-8H97.76s4.71,0,4.71,4S97.76,354,97.76,354Z" style="fill:url(#サマーホットピンク-3)"/><path d="M26,354H97.76s4.71,0,4.71-4-4.71-4-4.71-4H26Z" style="fill:url(#サマーグリーン-3)"/><path d="M128.07,548H150v-8H128.07s1.51,0,1.51,4S128.07,548,128.07,548Z" style="fill:url(#サマーホットピンク-4)"/><path d="M105,548h23.07s1.51,0,1.51-4-1.51-4-1.51-4H105Z" style="fill:url(#サマーグリーン-4)"/><path d="M106,118h58v-8H106s4,0,4,4S106,118,106,118Z" style="fill:url(#サマーホットピンク-5)"/><path d="M45,118h61s4,0,4-4-4-4-4-4H45Z" style="fill:url(#サマーグリーン-5)"/><polygon points="17.2 140 73.71 140 77.55 136 73.71 132 17.2 132 17.2 140" style="fill:url(#オータムイエロー-2)"/><polygon points="73.71 140 132 140 132 132 73.71 132 77.55 136 73.71 140" style="fill:url(#サマーターコイズ-2)"/><polygon points="40 426 46.89 426 47.36 422 46.89 418 40 418 40 426" style="fill:url(#オータムイエロー-3)"/><polygon points="46.89 426 54 426 54 418 46.89 418 47.36 422 46.89 426" style="fill:url(#サマーターコイズ-3)"/><polygon points="19 596 91.36 596 96.28 592 91.36 588 19 588 19 596" style="fill:url(#オータムイエロー-4)"/><polygon points="91.36 596 166 596 166 588 91.36 588 96.28 592 91.36 596" style="fill:url(#サマーターコイズ-4)"/><polygon points="147 378 79.17 378 74.55 374 79.17 370 147 370 147 378" style="fill:url(#オータムイエロー-5)"/><polygon points="79.17 378 9.2 378 9.2 370 79.17 370 74.55 374 79.17 378" style="fill:url(#サマーターコイズ-5)"/><polygon points="73 670 55.77 670 54.6 666 55.77 662 73 662 73 670" style="fill:url(#オータムイエロー-6)"/><polygon points="55.77 670 38 670 38 662 55.77 662 54.6 666 55.77 670" style="fill:url(#サマーターコイズ-6)"/><path d="M150.31,72H143V64h7.31s-.5,0-.5,4S150.31,72,150.31,72Z" style="fill:url(#サマーホットピンク-6)"/><path d="M158,72h-7.69s-.5,0-.5-4,.5-4,.5-4H158Z" style="fill:url(#サマーグリーン-6)"/><path d="M56,401H16v-8H56s-2.76,0-2.76,4S56,401,56,401Z" style="fill:url(#サマーホットピンク-7)"/><path d="M98,401H56s-2.76,0-2.76-4S56,393,56,393H98Z" style="fill:url(#サマーグリーン-7)"/><path d="M73.31,619H8v-7.77H73.31s-4.5,0-4.5,3.88S73.31,619,73.31,619Z" style="fill:url(#サマーホットピンク-8)"/><path d="M142,619H73.31s-4.5,0-4.5-3.89,4.5-3.88,4.5-3.88H142Z" style="fill:url(#サマーグリーン-8)"/><path d="M55.61,643H21v-8H55.61s-2.39,0-2.39,4S55.61,643,55.61,643Z" style="fill:url(#サマーホットピンク-9)"/><path d="M92,643H55.61s-2.39,0-2.39-4,2.39-4,2.39-4H92Z" style="fill:url(#サマーグリーン-9)"/><path d="M32.85,189H27v-8h5.85s-.4,0-.4,4S32.85,189,32.85,189Z" style="fill:url(#サマーホットピンク-10)"/><path d="M39,189H32.85s-.4,0-.4-4,.4-4,.4-4H39Z" style="fill:url(#サマーグリーン-10)"/><polygon points="77 165.17 45.59 165.17 43.46 161.67 45.59 158.17 77 158.17 77 165.17" style="fill:url(#オータムイエロー-7)"/><polygon points="45.59 165.17 13.2 165.17 13.2 158.17 45.59 158.17 43.46 161.67 45.59 165.17" style="fill:url(#サマーターコイズ-7)"/><polygon points="168 95 131.67 95 129.2 91 131.67 87 168 87 168 95" style="fill:url(#オータムイエロー-8)"/><polygon points="131.67 95 94.2 95 94.2 87 131.67 87 129.2 91 131.67 95" style="fill:url(#サマーターコイズ-8)"/><path d="M162,255c.56-50.57-152.67-51.28-152.11-101.85v2.41" style="fill:none;stroke-miterlimit:10;stroke-width:10px;stroke:url(#名称未設定グラデーション_3-3)"/><path d="M18.89,697.56c-.56-59.79,152.82-60.63,152.25-120.41v1.41c.57-59.79-152.81-60.63-152.25-120.41v.41c-.56-59.79,152.82-60.63,152.25-120.41L171,340c.56-62-153.68-64.86-153.11-126.85v.41c-.56-59.79,152.82-60.63,152.25-120.41v1.41c.29-29.9-37.93-45.05-76.14-60.21" style="fill:none;stroke-miterlimit:10;stroke-width:10px;stroke:url(#ターコイズ)"/><path d="M9.89,155.56C9.33,95.77,162.71,94.93,162.14,35.15" style="fill:none;stroke-miterlimit:10;stroke-width:10px;stroke:url(#名称未設定グラデーション_3-4)"/><path d="M9,379v2c-.56-62.56,153.56-64.44,153-127v1" style="fill:none;stroke-miterlimit:10;stroke-width:10px;stroke:url(#名称未設定グラデーション_3-5)"/><path d="M8,618c-.56-64.55,153.56-65.45,153-130" style="fill:none;stroke-miterlimit:10;stroke-width:10px;stroke:url(#名称未設定グラデーション_3-6)"/><polygon points="22.2 236 83.63 236 87.81 232 83.63 228 22.2 228 22.2 236" style="fill:url(#オータムイエロー-9)"/><polygon points="83.63 236 147 236 147 228 83.63 228 87.81 232 83.63 236" style="fill:url(#サマーターコイズ-9)"/><path d="M106.92,259H162v-8H106.92a4,4,0,0,1,0,8Z" style="fill:url(#サマーホットピンク-11)"/><path d="M49,259h57.92a4,4,0,0,0,0-8H49Z" style="fill:url(#サマーグリーン-11)"/><path d="M55.55,212H19v-8H55.55S53,204,53,208,55.55,212,55.55,212Z" style="fill:url(#サマーホットピンク-12)"/><path d="M94,212H55.55S53,212,53,208s2.52-4,2.52-4H94Z" style="fill:url(#サマーグリーン-12)"/><polygon points="150 284 125.88 284 124.24 280 125.88 276 150 276 150 284" style="fill:url(#オータムイエロー-10)"/><polygon points="125.88 284 101 284 101 276 125.88 276 124.24 280 125.88 284" style="fill:url(#サマーターコイズ-10)"/><polygon points="119 452 70.76 452 67.48 448 70.76 444 119 444 119 452" style="fill:url(#オータムイエロー-11)"/><polygon points="70.76 452 21 452 21 444 70.76 444 67.48 448 70.76 452" style="fill:url(#サマーターコイズ-11)"/><polygon points="19.2 475 85.06 475 89.54 471 85.06 467 19.2 467 19.2 475" style="fill:url(#オータムイエロー-12)"/><polygon points="85.06 475 153 475 153 467 85.06 467 89.54 471 85.06 475" style="fill:url(#サマーターコイズ-12)"/><path d="M103,498h57v-8H103a4,4,0,0,1,0,8Z" style="fill:url(#サマーホットピンク-13)"/><path d="M43,498h60s3.94,0,3.94-4a3.88,3.88,0,0,0-3.94-4H43Z" style="fill:url(#サマーグリーン-13)"/><polygon points="146 523 121.88 523 120.24 519 121.88 515 146 515 146 523" style="fill:url(#オータムイエロー-13)"/><polygon points="121.88 523 97 523 97 515 121.88 515 120.24 519 121.88 523" style="fill:url(#サマーターコイズ-13)"/><polygon points="21 694.01 76.62 694.01 80.41 690.12 76.62 686.24 21 686.24 21 694.01" style="fill:url(#オータムイエロー-14)"/><polygon points="76.62 694.01 134 694.01 134 686.24 76.62 686.24 80.41 690.12 76.62 694.01" style="fill:url(#サマーターコイズ-14)"/><polygon points="118 48 138.67 48 140.08 44 138.67 40 118 40 118 48" style="fill:url(#オータムイエロー-15)"/><polygon points="138.67 48 160 48 160 40 138.67 40 140.08 44 138.67 48" style="fill:url(#サマーターコイズ-15)"/></svg>